<?xml version="1.0" encoding="utf-8"?>
<!-- Generator: Adobe Illustrator 19.0.0, SVG Export Plug-In . SVG Version: 6.00 Build 0)  -->
<svg version="1.1" id="Layer_1" xmlns="http://www.w3.org/2000/svg" xmlns:xlink="http://www.w3.org/1999/xlink" x="0px" y="0px"
	 viewBox="0 0 200 200" enable-background="new 0 0 200 200" xml:space="preserve">
<g id="XMLID_2_">
	<path id="XMLID_3_" d="M188.7,39.1l-38,34.7c-4.2,3.8-7.7,7.1-10.6,9.6c-2.9,2.6-5.3,4.7-7.4,6.5c-2,1.7-3.8,3.2-5.1,4.3
		c-1.4,1.1-2.6,2.1-3.7,3c1.1,0.7,2.3,1.6,3.6,2.7c1.3,1.1,3.1,2.6,5.2,4.6c2.2,2,4.9,4.5,8.1,7.5c3.2,3,7.3,6.8,12.2,11.3
		l38.5,36.2H139l-41-39.8l-42.3,39.8H9.4l39.2-36.2c4.6-4.2,8.4-7.7,11.5-10.5c3.1-2.8,5.7-5.1,7.7-6.9c2-1.8,3.7-3.2,5.1-4.3
		c1.4-1.1,2.6-2,3.7-2.9c-1.1-0.8-2.3-1.8-3.6-2.8c-1.3-1-3-2.5-5-4.3c-2-1.9-4.6-4.2-7.7-7c-3.1-2.8-7-6.4-11.7-10.9L11.8,39.1
		h51.7l38.3,37.4l38.7-37.4H188.7z"/>
</g>
</svg>
