<?xml version="1.0" encoding="utf-8"?>
<!-- Generator: Adobe Illustrator 19.0.0, SVG Export Plug-In . SVG Version: 6.00 Build 0)  -->
<svg version="1.1" id="Layer_1" xmlns="http://www.w3.org/2000/svg" xmlns:xlink="http://www.w3.org/1999/xlink" x="0px" y="0px"
	 viewBox="0 0 320.1 70.8" enable-background="new 0 0 320.1 70.8" xml:space="preserve">
<g id="XMLID_2_">
	<path id="XMLID_3_" d="M31.4,21.9h-9.1l-4.9-5.8H6.9v5.8H0.1V10.7h19.1c1.1,0,1.9-0.2,2.7-0.7C22.6,9.6,23,9,23,8.2
		c0-0.9-0.3-1.5-1-1.9c-0.7-0.4-1.6-0.6-2.8-0.6H0.1l4.4-5.7h14.1c1.2,0,2.5,0.1,3.9,0.3c1.3,0.2,2.6,0.6,3.7,1.2
		c1.1,0.6,2,1.4,2.7,2.4c0.7,1,1.1,2.3,1.1,3.9c0,0.9-0.1,1.7-0.4,2.4c-0.3,0.8-0.6,1.5-1.1,2.1c-0.5,0.6-1.1,1.1-1.8,1.6
		c-0.7,0.4-1.5,0.7-2.4,0.9c0.4,0.3,0.8,0.6,1.2,1.1s1.1,1,1.8,1.8L31.4,21.9z"/>
	<path id="XMLID_105_" d="M59.4,16.3L55,21.9H33.8v-22h25.5l-4.4,5.7H40.6v2.6h17.4l-3.9,5H40.6v3H59.4z"/>
	<path id="XMLID_107_" d="M68.3-0.1l9.9,14.6L88.6-0.1h8L82.5,19.8c-0.5,0.6-1.1,1.2-1.8,1.7c-0.7,0.5-1.6,0.8-2.6,0.8
		c-1,0-1.9-0.2-2.6-0.7c-0.7-0.5-1.3-1.1-1.8-1.8L60-0.1H68.3z"/>
	<path id="XMLID_109_" d="M124.6,16.3l-4.4,5.7H99v-22h25.5l-4.4,5.7h-14.2v2.6h17.4l-3.9,5h-13.5v3H124.6z"/>
	<path id="XMLID_111_" d="M158.1,21.9H149l-4.9-5.8h-10.5v5.8h-6.8V10.7H146c1.1,0,1.9-0.2,2.7-0.7c0.7-0.4,1.1-1,1.1-1.8
		c0-0.9-0.3-1.5-1-1.9c-0.7-0.4-1.6-0.6-2.8-0.6h-19.1l4.4-5.7h14.1c1.2,0,2.5,0.1,3.9,0.3c1.3,0.2,2.6,0.6,3.7,1.2
		c1.1,0.6,2,1.4,2.7,2.4c0.7,1,1.1,2.3,1.1,3.9c0,0.9-0.1,1.7-0.4,2.4c-0.3,0.8-0.6,1.5-1.1,2.1c-0.5,0.6-1.1,1.1-1.8,1.6
		c-0.7,0.4-1.5,0.7-2.4,0.9c0.4,0.3,0.8,0.6,1.2,1.1c0.5,0.4,1.1,1,1.8,1.8L158.1,21.9z"/>
	<path id="XMLID_113_" d="M180.9,8.7c2.7,0,4.7,0.5,6.2,1.5c1.4,1,2.1,2.5,2.1,4.5c0,1.1-0.2,2.1-0.5,3c-0.4,0.9-0.9,1.7-1.7,2.3
		c-0.8,0.6-1.7,1.1-2.9,1.4c-1.2,0.3-2.6,0.5-4.3,0.5h-20.5l4.4-5.7h16.6c0.8,0,1.4-0.1,1.8-0.4s0.6-0.7,0.6-1.2
		c0-0.6-0.2-1-0.6-1.2s-1-0.4-1.8-0.4h-12c-1.4,0-2.7-0.2-3.7-0.5c-1-0.3-1.9-0.7-2.6-1.3c-0.7-0.5-1.2-1.2-1.5-2
		c-0.3-0.8-0.5-1.6-0.5-2.6c0-1,0.2-2,0.5-2.8c0.4-0.8,0.9-1.6,1.7-2.2c0.8-0.6,1.7-1.1,2.9-1.4c1.2-0.3,2.6-0.5,4.3-0.5h19.1
		l-4.4,5.7H169c-0.8,0-1.4,0.1-1.8,0.3s-0.6,0.6-0.6,1.2c0,0.6,0.2,1,0.6,1.2c0.4,0.2,1,0.3,1.8,0.3H180.9z"/>
	<path id="XMLID_115_" d="M199.1,21.9h-6.8v-22h6.8V21.9z"/>
	<path id="XMLID_117_" d="M218.8-0.4c5.3,0,9.4,0.9,12.1,2.7c2.7,1.8,4,4.7,4,8.6c0,3.9-1.3,6.8-4,8.6c-2.7,1.8-6.7,2.7-12.1,2.7
		c-5.4,0-9.4-0.9-12.1-2.7s-4-4.7-4-8.6c0-3.9,1.3-6.8,4-8.6C209.4,0.5,213.4-0.4,218.8-0.4z M218.8,16.6c1.7,0,3.2-0.1,4.3-0.2
		c1.2-0.1,2.1-0.4,2.9-0.8c0.7-0.4,1.3-1,1.6-1.7c0.3-0.7,0.5-1.7,0.5-2.9c0-1.2-0.2-2.1-0.5-2.9c-0.3-0.7-0.9-1.3-1.6-1.7
		c-0.7-0.4-1.7-0.7-2.9-0.8c-1.2-0.1-2.6-0.2-4.3-0.2s-3.2,0.1-4.3,0.2c-1.2,0.1-2.1,0.4-2.9,0.8c-0.7,0.4-1.3,1-1.6,1.7
		c-0.3,0.7-0.5,1.7-0.5,2.9c0,1.2,0.2,2.1,0.5,2.9c0.3,0.7,0.9,1.3,1.6,1.7c0.7,0.4,1.7,0.7,2.9,0.8S217,16.6,218.8,16.6z"/>
	<path id="XMLID_120_" d="M260.6,22.3c-0.4,0-0.9-0.1-1.3-0.2s-0.9-0.5-1.4-1L244.4,9v12.9h-6.2V3.7c0-0.7,0.1-1.3,0.3-1.9
		c0.2-0.5,0.5-1,0.8-1.3c0.3-0.3,0.7-0.6,1.2-0.7c0.4-0.2,0.9-0.2,1.4-0.2c0.4,0,0.8,0.1,1.3,0.2c0.4,0.1,0.9,0.5,1.5,1l13.5,12.1
		V-0.1h6.2v18.2c0,0.7-0.1,1.3-0.3,1.9c-0.2,0.5-0.5,1-0.8,1.3c-0.3,0.3-0.7,0.6-1.2,0.7C261.5,22.2,261.1,22.3,260.6,22.3z"/>
</g>
<g id="XMLID_84_">
	<path id="XMLID_85_" d="M123.8,30.6l-4,5.2h-7.1v14.7h-6.2V35.7h-9.4l4-5.2H123.8z"/>
	<path id="XMLID_87_" d="M131.9,50.5h-6.2V30.6h6.2V50.5z"/>
	<path id="XMLID_89_" d="M161.1,45.4l-4,5.1h-10c-1.7,0-3.3-0.3-4.8-0.8c-1.5-0.5-2.7-1.2-3.8-2.1c-1.1-0.9-1.9-2-2.5-3.2
		c-0.6-1.2-0.9-2.6-0.9-4c0-1.4,0.3-2.8,0.9-4c0.6-1.2,1.4-2.2,2.5-3.1c1.1-0.9,2.3-1.5,3.8-2c1.5-0.5,3.1-0.7,4.8-0.7h14l-4,5.2
		h-10c-0.8,0-1.6,0.1-2.3,0.4s-1.3,0.6-1.8,1c-0.5,0.4-0.9,0.9-1.2,1.5c-0.3,0.6-0.4,1.3-0.4,2c0,0.7,0.1,1.4,0.4,2
		c0.3,0.6,0.7,1.1,1.2,1.5c0.5,0.4,1.1,0.7,1.9,1c0.7,0.2,1.5,0.3,2.3,0.3H161.1z"/>
	<path id="XMLID_91_" d="M188,30.6l-4,5.2h-7.1v14.7h-6.2V35.7h-9.4l4-5.2H188z"/>
	<path id="XMLID_93_" d="M192,50.5l3.7-5.1h5c0.6,0,1.2,0,1.9,0s1.2,0,1.7,0.1c-0.3-0.4-0.6-0.8-1-1.4c-0.4-0.5-0.7-1.1-1.1-1.5
		l-3.6-5.3l-9.4,13.2H182l12.8-18c0.4-0.6,0.9-1.1,1.6-1.5c0.6-0.5,1.4-0.7,2.4-0.7c0.9,0,1.7,0.2,2.3,0.6c0.6,0.4,1.2,1,1.6,1.6
		l12.5,18H192z"/>
	<path id="XMLID_95_" d="M239.7,45.4l-4,5.1h-10c-1.7,0-3.3-0.3-4.8-0.8s-2.7-1.2-3.8-2.1c-1.1-0.9-1.9-2-2.5-3.2
		c-0.6-1.2-0.9-2.6-0.9-4c0-1.4,0.3-2.8,0.9-4c0.6-1.2,1.4-2.2,2.5-3.1c1.1-0.9,2.3-1.5,3.8-2c1.5-0.5,3.1-0.7,4.8-0.7h14l-4,5.2
		h-10c-0.8,0-1.6,0.1-2.3,0.4s-1.3,0.6-1.8,1c-0.5,0.4-0.9,0.9-1.2,1.5c-0.3,0.6-0.4,1.3-0.4,2c0,0.7,0.1,1.4,0.4,2
		c0.3,0.6,0.7,1.1,1.2,1.5s1.1,0.7,1.9,1c0.7,0.2,1.5,0.3,2.3,0.3H239.7z"/>
	<path id="XMLID_97_" d="M266.6,30.6l-4,5.2h-7.1v14.7h-6.2V35.7H240l4-5.2H266.6z"/>
	<path id="XMLID_99_" d="M279.6,30.2c4.8,0,8.5,0.8,10.9,2.5c2.4,1.6,3.6,4.3,3.6,7.8c0,3.6-1.2,6.2-3.6,7.8
		c-2.4,1.6-6.1,2.5-10.9,2.5c-4.9,0-8.5-0.8-10.9-2.5c-2.4-1.6-3.6-4.3-3.6-7.8c0-3.6,1.2-6.2,3.6-7.8S274.7,30.2,279.6,30.2z
		 M279.6,45.6c1.5,0,2.9-0.1,3.9-0.2c1.1-0.1,1.9-0.4,2.6-0.8c0.7-0.4,1.1-0.9,1.4-1.6c0.3-0.7,0.4-1.5,0.4-2.6
		c0-1.1-0.1-1.9-0.4-2.6s-0.8-1.2-1.4-1.5c-0.7-0.4-1.5-0.6-2.6-0.7s-2.4-0.2-3.9-0.2c-1.5,0-2.9,0.1-3.9,0.2
		c-1.1,0.1-1.9,0.4-2.6,0.7c-0.7,0.4-1.1,0.9-1.4,1.5s-0.4,1.5-0.4,2.6c0,1.1,0.1,1.9,0.4,2.6c0.3,0.7,0.8,1.2,1.4,1.6
		c0.7,0.4,1.5,0.6,2.6,0.8C276.7,45.6,278,45.6,279.6,45.6z"/>
	<path id="XMLID_102_" d="M320.4,45.4l-4,5.1h-19.2V30.6h23.1l-4,5.2h-12.9v2.4h15.8l-3.5,4.5h-12.2v2.7H320.4z"/>
</g>
<g id="XMLID_69_">
	<path id="XMLID_70_" d="M114.3,59.8l-2,2.6h-3.6v7.4h-3.1v-7.4h-4.7l2-2.6H114.3z"/>
	<path id="XMLID_72_" d="M127.4,69.9h-3.1V66h-6v3.9h-3.1v-10h3.1v3.6h6v-3.6h3.1V69.9z"/>
	<path id="XMLID_74_" d="M141,67.3l-2,2.6h-9.7v-10H141l-2,2.6h-6.5v1.2h8l-1.8,2.3h-6.2v1.4H141z"/>
	<path id="XMLID_76_" d="M154,63.6h6.4v6.3h-6.9c-0.9,0-1.7-0.1-2.4-0.4c-0.7-0.3-1.4-0.6-1.9-1.1c-0.5-0.5-1-1-1.3-1.6
		s-0.5-1.3-0.5-2c0-0.7,0.2-1.4,0.5-2c0.3-0.6,0.7-1.1,1.3-1.6c0.5-0.4,1.2-0.8,1.9-1c0.7-0.2,1.5-0.4,2.4-0.4h7.2l-2,2.6h-5.2
		c-0.4,0-0.8,0.1-1.2,0.2c-0.4,0.1-0.7,0.3-0.9,0.5c-0.3,0.2-0.5,0.5-0.6,0.8c-0.1,0.3-0.2,0.6-0.2,1s0.1,0.7,0.2,1s0.4,0.5,0.6,0.8
		c0.3,0.2,0.6,0.4,0.9,0.5c0.4,0.1,0.8,0.2,1.2,0.2h3.8v-1.5h-5.2L154,63.6z"/>
	<path id="XMLID_78_" d="M166.5,69.9l1.9-2.6h2.5c0.3,0,0.6,0,0.9,0c0.3,0,0.6,0,0.8,0c-0.1-0.2-0.3-0.4-0.5-0.7s-0.4-0.5-0.5-0.8
		l-1.8-2.7l-4.7,6.7h-3.7l6.4-9.1c0.2-0.3,0.5-0.5,0.8-0.8c0.3-0.2,0.7-0.3,1.2-0.3c0.5,0,0.9,0.1,1.2,0.3c0.3,0.2,0.6,0.5,0.8,0.8
		l6.3,9.1H166.5z"/>
	<path id="XMLID_80_" d="M186.2,63.6c0.2,0.4,0.4,0.7,0.6,1s0.3,0.6,0.4,0.8c0.1,0.2,0.2,0.4,0.3,0.6c0.1,0.2,0.2,0.4,0.3,0.6
		c0.1-0.2,0.2-0.4,0.3-0.5c0.1-0.2,0.2-0.4,0.3-0.6c0.1-0.2,0.3-0.5,0.4-0.8c0.2-0.3,0.4-0.6,0.6-1l1.6-2.8c0.2-0.3,0.4-0.6,0.7-0.8
		c0.3-0.2,0.6-0.3,1-0.3c0.4,0,0.7,0.1,1.1,0.3c0.3,0.2,0.5,0.6,0.7,1l2.5,8.8h-3.1l-0.9-3.5c-0.2-0.6-0.3-1.1-0.4-1.5
		c-0.1-0.4-0.2-0.8-0.3-1.3c-0.2,0.4-0.4,0.7-0.6,1.2c-0.2,0.4-0.5,1-0.8,1.6l-1.3,2.5c-0.1,0.2-0.3,0.4-0.4,0.6
		c-0.1,0.1-0.3,0.3-0.4,0.3c-0.1,0.1-0.3,0.1-0.5,0.2c-0.2,0-0.3,0-0.5,0s-0.4,0-0.5,0c-0.2,0-0.3-0.1-0.5-0.2
		c-0.1-0.1-0.3-0.2-0.4-0.3c-0.1-0.1-0.3-0.3-0.4-0.6l-1.4-2.5c-0.2-0.3-0.3-0.6-0.5-0.9s-0.3-0.5-0.4-0.7c-0.1-0.2-0.2-0.4-0.3-0.6
		c-0.1-0.2-0.2-0.4-0.2-0.5c-0.1,0.4-0.2,0.8-0.3,1.3c-0.1,0.4-0.2,0.9-0.4,1.5l-0.9,3.5h-3l2.6-8.8c0.1-0.5,0.4-0.8,0.7-1
		c0.3-0.2,0.7-0.3,1.1-0.3c0.4,0,0.7,0.1,1,0.3s0.5,0.5,0.7,0.8L186.2,63.6z"/>
	<path id="XMLID_82_" d="M209.8,67.3l-2,2.6h-9.7v-10h11.6l-2,2.6h-6.5v1.2h8l-1.8,2.3h-6.2v1.4H209.8z"/>
</g>
</svg>
